<svg width="35" height="35" viewBox="0 0 35 35" fill="none" xmlns="http://www.w3.org/2000/svg">
<path d="M17.5 0.546875C8.13477 0.546875 0.546875 8.13477 0.546875 17.5C0.546875 26.8652 8.13477 34.4531 17.5 34.4531C26.8652 34.4531 34.4531 26.8652 34.4531 17.5C34.4531 8.13477 26.8652 0.546875 17.5 0.546875ZM17.5 31.1719C9.94629 31.1719 3.82812 25.0537 3.82812 17.5C3.82812 9.94629 9.94629 3.82812 17.5 3.82812C25.0537 3.82812 31.1719 9.94629 31.1719 17.5C31.1719 25.0537 25.0537 31.1719 17.5 31.1719ZM24.459 13.248L20.207 17.5L24.459 21.752C24.7803 22.0732 24.7803 22.5928 24.459 22.9141L22.9141 24.459C22.5928 24.7803 22.0732 24.7803 21.752 24.459L17.5 20.207L13.248 24.459C12.9268 24.7803 12.4072 24.7803 12.0859 24.459L10.541 22.9141C10.2197 22.5928 10.2197 22.0732 10.541 21.752L14.793 17.5L10.541 13.248C10.2197 12.9268 10.2197 12.4072 10.541 12.0859L12.0859 10.541C12.4072 10.2197 12.9268 10.2197 13.248 10.541L17.5 14.793L21.752 10.541C22.0732 10.2197 22.5928 10.2197 22.9141 10.541L24.459 12.0859C24.7803 12.4072 24.7803 12.9268 24.459 13.248Z" fill="#353535"/>
</svg>
